<?xml version="1.0"?>
<svg width="1024" height="680" xmlns="http://www.w3.org/2000/svg" xmlns:svg="http://www.w3.org/2000/svg" enable-background="new 0 0 652 652" version="1.1" xml:space="preserve">
 <style type="text/css">.st0{fill:#0a0a23;}</style>
 <g class="layer">
  <title>Layer 1</title>
  <g id="svg_3">
   <g id="svg_1">
    <path class="st0" d="m424.54,276.39c0,-23.81 7.26,-44.89 21.79,-63.48c5.25,-6.81 9.49,-10.21 12.51,-10.21c1.01,0 2.21,0.23 2.82,1.13s1.42,1.82 1.42,2.95c0,1.82 -1.82,4.54 -5.65,8.61c-15.13,16.55 -22.81,36.96 -22.81,61.44c0,27.2 7.87,48.98 23.6,65.75c3.22,3.4 4.84,5.89 4.84,8.16c0,1.13 -0.61,2.49 -1.42,3.4s-1.82,1.59 -2.82,1.59c-3.63,0 -8.68,-4.76 -15.33,-14.28c-12.91,-17.69 -18.96,-39.45 -18.96,-65.08l0,0l0,0l0,0.02l0.01,0z" id="path29_1_"/>
    <path class="st0" d="m624.89,282.51c0,23.81 -7.26,44.89 -21.79,63.48c-5.25,6.81 -9.49,10.21 -12.51,10.21c-1.01,0 -2.21,-0.23 -2.82,-1.13c-0.81,-0.9 -1.42,-2.27 -1.42,-3.4c0,-1.82 1.82,-4.54 5.65,-8.39c15.13,-16.55 22.81,-36.96 22.81,-61.44c0,-27.2 -7.87,-48.98 -23.6,-65.75c-3.22,-3.4 -4.84,-5.89 -4.84,-8.16c0,-1.13 0.61,-2.49 1.42,-3.4c0.81,-0.9 1.82,-1.59 2.82,-1.59c3.43,0 8.68,4.76 15.33,14.28c12.51,18.37 18.96,40.13 18.96,65.3l0,0l0,0l0,-0.02l-0.01,0.01z" id="path31_1_"/>
    <path class="st0" d="m570.42,350.75l-91.8,0c-2.82,0 -5.65,-2.49 -5.65,-6.34c0,-3.4 2.21,-6.34 5.65,-6.34l91.6,0c2.82,0 5.65,2.49 5.65,6.34c0,3.85 -2.21,6.34 -5.45,6.34l0,0z" id="path37_1_"/>
    <path class="st0" d="m505.45,215.85c0,0 7.66,5.89 7.66,16.77c0,18.82 -22.4,39.68 -22.4,58.94c0,21.09 14.13,34.69 27.84,38.78c1.82,0.45 2.82,-2.04 0.41,-2.72c-5.45,-1.59 -11.7,-9.75 -11.7,-22.68c0,-12.02 10.09,-16.32 14.13,-22.21c4.24,-5.89 3.22,-13.38 0.81,-15.65c-2.41,-2.27 -0.81,-4.99 3.63,-1.59s8.07,9.98 6.65,16.1c-1.62,7.94 0.61,12.47 4.24,12.93s7.66,-1.59 7.26,-5.44c-0.41,-3.85 -2.41,-7.94 -1.22,-7.94c2.62,0 8.07,7.26 8.07,18.82c0,11.56 -8.47,19.49 -10.89,22.45c-1.62,1.82 0.41,4.31 2.62,2.95c1.01,-0.45 3.22,-2.04 4.64,-3.17c6.65,-5.44 16.95,-16.1 16.95,-36.28c0,-21.09 -7.06,-30.39 -14.13,-38.08c-7.06,-7.94 -8.88,-5.89 -6.85,-2.04c6.06,11.78 2.41,15.65 -2.03,15.65c-5.25,0 -5.45,-13.15 -7.46,-23.36c-4.44,-22.45 -22.4,-26.3 -25.83,-26.53c-3.43,0 -6.45,2.27 -2.41,4.31l0,0l0.02,0l-0.01,-0.01z" id="Shape"/>
   </g>
   <g id="svg_2">
    <path class="st0" d="m27.64,420.13l-10.5,0c-3.63,0 -5.65,-1.82 -5.65,-5.44c0,-3.62 1.82,-5.44 5.65,-5.44l10.5,0l0,-10.66c0,-18.37 8.27,-27.43 24.61,-27.43c6.65,0 12.31,1.59 16.75,4.31c5.65,3.85 8.47,9.75 8.47,16.77c0,4.76 -1.62,6.81 -4.84,6.81c-2.21,0 -3.83,-1.59 -5.05,-4.31c-1.42,-4.76 -2.62,-7.48 -3.43,-8.61c-1.82,-2.72 -5.86,-4.31 -11.7,-4.31c-10.09,0 -14.74,5.67 -14.74,16.77l0,10.21l19.16,0c4.24,0 6.45,1.82 6.45,5.44c0,3.62 -2.21,5.44 -6.45,5.44l-19.16,0l0,68.92c0,4.31 -1.62,6.34 -4.84,6.34c-3.22,0 -4.84,-2.27 -4.84,-6.34l0,-68.7l-0.41,0l0,0.23l0.02,0z" id="path5_1_"/>
    <path class="st0" d="m113.61,483.16l0,-62.81l-14.33,0c-3.83,0 -5.86,-1.82 -5.86,-5.44c0,-3.62 1.82,-5.44 5.86,-5.44l18.96,0c3.22,0 5.05,3.4 5.05,9.3c5.86,-7.26 12.31,-11.11 18.77,-11.11c5.65,0 9.69,1.82 12.91,5.67c3.22,3.85 4.84,9.06 4.84,14.97c0,4.31 -1.62,6.34 -4.84,6.34c-1.82,0 -3.22,-1.59 -3.83,-4.31c-1.42,-4.99 -2.21,-7.71 -2.41,-8.16c-1.42,-2.72 -3.83,-4.31 -7.46,-4.31c-3.63,0 -7.26,1.59 -10.3,4.54c-1.82,1.59 -4.44,4.76 -7.87,9.75l0,50.11l17.96,0c3.83,0 5.86,1.82 5.86,4.99c0,3.62 -1.82,5.67 -5.86,5.67l-41.97,0c-3.83,0 -5.86,-1.82 -5.86,-5.44c0,-3.62 1.82,-5.44 5.86,-5.44l14.53,0l0,1.13l0,0l-0.02,0l0.01,-0.01z" id="path7_1_"/>
    <path class="st0" d="m185.84,453.47l0,12.02c0,12.93 7.87,19.27 24.01,19.27c5.86,0 10.5,-0.68 14.33,-2.27c1.82,-0.68 5.25,-2.72 9.69,-6.34c2.82,-2.95 5.05,-4.54 5.86,-4.54c2.62,0 3.83,1.59 3.83,4.76s-1.82,6.57 -5.86,10.21c-6.45,5.67 -15.94,8.61 -28.65,8.61c-22.2,0 -33.29,-9.98 -33.29,-29.7l0,-29.92c0,-6.81 2.41,-12.93 6.85,-17.69c6.06,-6.57 15.13,-9.75 27.25,-9.75c21.79,0 32.48,12.25 32.48,36.73c0,5.89 -2.21,9.06 -6.06,9.06l-50.65,0l0.2,-0.45l0,0l0.01,0zm0,-10.66l47.42,0c0,-16.32 -7.87,-24.26 -24.01,-24.26c-5.86,0 -11.09,1.59 -15.94,4.54c-4.84,3.85 -7.46,8.39 -7.46,13.38l0,6.34l0,0l-0.02,0l0.01,0z" id="path9_1_"/>
    <path class="st0" d="m268.77,453.47l0,12.02c0,12.93 7.87,19.27 24.01,19.27c5.86,0 10.5,-0.68 14.33,-2.27c1.82,-0.68 5.25,-2.72 9.69,-6.34c2.82,-2.95 5.05,-4.54 5.86,-4.54c2.62,0 3.83,1.59 3.83,4.76s-1.82,6.57 -5.86,10.21c-6.45,5.67 -15.94,8.61 -28.65,8.61c-22.2,0 -33.29,-9.98 -33.29,-29.7l0,-29.92c0,-6.81 2.41,-12.93 6.85,-17.69c6.06,-6.57 15.13,-9.75 27.25,-9.75c21.79,0 32.48,12.25 32.48,36.73c0,5.89 -2.21,9.06 -6.06,9.06l-50.65,0l0.2,-0.45l0,0l0.01,0zm0,-10.66l47.42,0c0,-16.32 -7.87,-24.26 -24.01,-24.26c-5.86,0 -11.09,1.59 -15.94,4.54c-5.05,3.85 -7.46,8.39 -7.46,13.38l0,6.34l0,0l-0.02,0l0.01,0z" id="path11_1_"/>
    <path class="st0" d="m343.22,460.5l0,-46.94c0,-24.71 11.5,-36.73 34.3,-36.73c9.28,0 16.75,2.49 22.6,6.81c6.65,5.67 9.69,13.38 9.69,23.13c0,4.54 -1.62,6.81 -5.05,6.81c-2.41,0 -3.83,-2.27 -5.05,-6.57c-0.61,-3.62 -1.82,-7.26 -3.63,-10.66c-2.82,-5.89 -9.28,-8.61 -19.16,-8.61c-8.47,0 -14.53,2.49 -18.16,7.26c-3.43,4.54 -5.25,11.56 -5.25,21.31l0,39c0,10.21 1.82,17.46 5.65,21.99c3.83,4.76 10.09,7.48 18.57,7.48c12.91,0 20.38,-4.99 22.2,-15.19c0.81,-3.85 1.01,-5.67 1.01,-5.89c0.81,-2.27 2.21,-3.4 3.83,-3.4c3.22,0 5.05,2.49 5.05,6.81c0,9.3 -3.43,16.55 -10.3,22.21c-5.65,4.31 -12.71,6.34 -21.79,6.34c-10.5,0 -18.77,-2.72 -24.82,-8.39c-6.65,-5.89 -9.69,-14.97 -9.69,-26.75l0,0l0,0l-0.02,-0.03l0.02,0.01z" id="path13_1_"/>
    <path class="st0" d="m425.15,467.07l0,-30.84c0,-19.04 11.09,-28.35 33.29,-28.35c22.2,0 33.29,9.3 33.29,28.35l0,30.84c0,19.04 -10.89,28.35 -32.89,28.35c-22.6,0 -33.7,-9.53 -33.7,-28.35l0,0l0,0l0.01,0zm56.89,0l0,-30.84c0,-11.78 -7.87,-17.69 -24.01,-17.69c-15.33,0 -23.2,5.89 -23.2,17.69l0,30.84c0,11.78 7.87,17.69 23.8,17.46c15.73,0 23.4,-5.67 23.4,-17.46l0,0l0.01,0z" id="path15_9_"/>
    <path class="st0" d="m564.57,485.21c-4.44,3.85 -8.47,6.34 -11.9,7.71c-3.63,1.59 -8.27,2.49 -13.52,2.49c-8.88,0 -16.14,-2.27 -21.79,-6.34c-6.45,-4.76 -9.49,-12.02 -9.49,-21.99l0,-31.52c0,-9.3 3.22,-16.55 9.28,-21.31c5.25,-4.31 12.51,-6.34 20.98,-6.34c5.65,0 10.3,0.68 13.93,2.27c3.63,1.59 7.66,4.31 11.9,8.16l0,-38.78c0,-4.99 1.62,-7.71 4.44,-7.71c3.22,0 5.05,2.72 5.05,7.71l0,110.42c0,3.85 -1.62,5.67 -4.44,5.67c-1.82,0 -3.22,-1.13 -3.63,-3.62c-0.61,-2.04 -0.81,-4.09 -0.81,-6.81l0,0l0,0l0,-0.02l0,0.01zm-0.61,-12.7l0,-43.3c-4.84,-3.85 -8.47,-6.57 -11.5,-7.71c-3.83,-1.82 -8.27,-2.72 -12.91,-2.72c-6.06,0 -11.09,1.13 -14.74,3.85c-4.84,3.4 -7.26,8.16 -7.26,14.05l0,29.7c0,6.34 2.41,11.11 7.46,14.28c3.83,2.49 8.88,3.85 15.13,3.85c5.05,0 9.49,-0.9 13.32,-2.72c3.22,-2.04 6.65,-5.22 10.5,-9.3l0,0l0,0l0,0.03l0,-0.01z" id="path17_1_"/>
    <path class="st0" d="m600.48,453.47l0,12.02c0,12.93 7.87,19.27 24.01,19.27c5.86,0 10.5,-0.68 14.33,-2.27c1.82,-0.68 5.25,-2.72 9.69,-6.34c2.82,-2.95 5.05,-4.54 5.86,-4.54c2.62,0 3.83,1.59 3.83,4.76s-1.82,6.57 -5.86,10.21c-6.45,5.67 -15.94,8.61 -28.65,8.61c-22.2,0 -33.29,-9.98 -33.29,-29.7l0,-29.92c0,-6.81 2.41,-12.93 6.85,-17.69c6.06,-6.57 15.13,-9.75 27.25,-9.75c21.79,0 32.48,12.25 32.48,36.73c0,5.89 -2.21,9.06 -6.06,9.06l-50.65,0l0.2,-0.45l0,0l0.01,0zm0,-10.66l47.42,0c0,-16.32 -7.87,-24.26 -24.01,-24.26c-5.86,0 -11.09,1.59 -15.94,4.54c-5.05,3.85 -7.46,8.39 -7.46,13.38l0,6.34l0,0l-0.02,0l0.01,0z" id="path19_1_"/>
    <path class="st0" d="m674.95,460.5l0,-46.94c0,-24.71 11.5,-36.73 34.3,-36.73c9.28,0 16.75,2.49 22.6,6.81c6.65,5.67 9.69,13.38 9.69,23.13c0,4.54 -1.62,6.81 -5.05,6.81c-2.41,0 -3.83,-2.27 -5.05,-6.57c-0.61,-3.62 -1.82,-7.26 -3.63,-10.66c-2.82,-5.89 -9.28,-8.61 -19.16,-8.61c-8.47,0 -14.53,2.49 -18.16,7.26c-3.43,4.54 -5.25,11.56 -5.25,21.31l0,39c0,10.21 1.82,17.46 5.65,21.99c3.83,4.76 10.09,7.48 18.57,7.48c12.91,0 20.38,-4.99 22.2,-15.19c0.81,-3.85 1.01,-5.67 1.01,-5.89c0.81,-2.27 2.21,-3.4 3.83,-3.4c3.22,0 5.05,2.49 5.05,6.81c0,9.3 -3.43,16.55 -10.3,22.21c-5.65,4.31 -12.71,6.34 -21.79,6.34c-10.5,0 -18.77,-2.72 -24.82,-8.39c-6.45,-5.89 -9.69,-14.97 -9.69,-26.75l0,0l0,0l-0.02,-0.03l0.02,0.01z" id="path21_1_"/>
    <path class="st0" d="m810.32,485.21c-4.84,3.85 -8.47,6.57 -11.09,7.71c-3.43,1.59 -7.66,2.49 -12.91,2.49c-7.87,0 -14.53,-1.82 -19.57,-5.67c-5.86,-4.54 -8.88,-11.11 -8.88,-19.96c0,-8.61 3.22,-15.65 9.28,-20.41c5.25,-4.54 12.31,-6.57 19.97,-6.57c6.65,0 13.93,1.82 22.6,4.99l0,-13.15c0,-6.34 -2.62,-10.88 -7.87,-13.38c-3.63,-1.82 -8.27,-2.72 -13.52,-2.72c-12.51,0 -18.96,3.85 -20.38,11.78c-0.61,3.62 -1.01,5.44 -1.01,5.67c-0.81,1.82 -2.21,2.72 -3.83,2.72c-3.43,0 -5.25,-2.27 -5.25,-6.34c0,-5.67 1.82,-10.88 5.86,-15.65c4.84,-5.89 13.52,-9.06 25.63,-9.06c9.69,0 16.95,1.82 21.79,5.44c5.65,4.54 8.47,12.02 8.47,22.45l0,38.55c0,4.54 0.81,7.48 2.41,9.06c0.2,0.23 1.82,1.13 4.44,2.49c1.62,0.9 2.41,2.49 2.41,4.99c0,2.95 -1.42,4.54 -4.24,4.54c-0.81,0 -2.21,-0.23 -4.24,-1.13c-3.63,-1.59 -6.06,-2.49 -6.65,-2.72c-1.82,-1.13 -3.02,-3.17 -3.43,-6.12l0,0l0,0l-0.02,-0.03l0.03,0.03zm-0.61,-11.33l0,-15.87c-7.46,-2.72 -14.53,-4.31 -20.98,-4.31c-14.33,0 -21.39,4.99 -21.39,15.65c0,5.44 2.21,9.75 6.45,12.02c3.43,2.27 7.66,3.4 12.91,3.4c4.44,0 8.68,-0.9 12.51,-2.95c2.82,-1.37 6.26,-4.31 10.5,-7.94l0,0l0,0z" id="path23_1_"/>
    <path class="st0" d="m847.26,416.96c2.41,-3.4 4.44,-5.67 6.06,-6.57c2.21,-1.59 4.84,-2.49 8.27,-2.49c5.25,0 9.69,2.95 13.72,9.3c2.62,-3.62 5.05,-5.89 7.26,-7.26c2.41,-1.59 5.65,-2.27 9.28,-2.27c11.5,0 17.15,6.34 17.15,19.04l0,60.99c0,4.99 -1.62,7.48 -5.05,7.48c-3.22,0 -4.84,-2.49 -4.84,-7.48l0,-57.37c0,-7.71 -2.82,-12.02 -8.47,-12.02c-4.24,0 -8.47,2.95 -12.31,8.61l0,60.76c0,4.99 -1.62,7.48 -4.84,7.48c-3.22,0 -4.84,-2.49 -4.84,-7.48l0,-56.22c0,-8.61 -3.22,-12.93 -9.28,-12.93c-3.83,0 -7.66,2.95 -11.7,8.61l0,60.54c0,4.99 -1.62,7.48 -5.05,7.48c-3.22,0 -4.84,-2.49 -4.84,-7.48l0,-74.59c0,-3.62 1.42,-5.44 3.83,-5.44c1.42,0 2.62,1.13 3.43,3.4c1.82,1.59 2.21,3.85 2.21,5.89l0,0l0,0l0.02,0.02l-0.01,0z" id="path25_1_"/>
    <path class="st0" d="m933.21,416.96c7.46,-5.89 16.14,-9.06 25.63,-9.06c19.97,0 30.07,9.75 30.07,28.57l0,31.29c0,9.06 -2.82,15.87 -8.47,21.09c-5.05,4.54 -11.9,6.81 -20.58,6.81c-10.3,0 -18.96,-2.95 -26.84,-9.3l0,35.59c0,5.44 -1.62,8.16 -4.84,8.16c-3.22,0 -4.84,-2.72 -4.84,-8.16l0,-105.66c0,-5.44 1.42,-8.16 3.83,-8.16c1.42,0 2.62,1.13 3.63,3.4c1.22,1.37 2.03,3.62 2.41,5.44l0,0l0,0l0.02,0l-0.02,-0.01zm0,57.14c6.85,6.81 15.33,10.66 25.02,10.66c6.06,0 10.89,-1.13 14.53,-3.85c4.44,-2.95 6.65,-7.48 6.65,-13.15l0,-31.29c0,-6.57 -2.41,-11.11 -7.26,-14.05c-3.63,-2.27 -8.68,-3.4 -14.74,-3.4c-5.65,0 -10.09,0.9 -13.52,2.72c-3.22,1.59 -6.65,4.76 -10.89,9.75l0,42.62l0.2,0l0,0l0,-0.02l0.01,0.01z" id="path27_1_"/>
   </g>
  </g>
 </g>
</svg>